<?xml version="1.0" encoding="utf-8"?>
<!-- Generator: Adobe Illustrator 16.0.3, SVG Export Plug-In . SVG Version: 6.00 Build 0)  -->
<!DOCTYPE svg PUBLIC "-//W3C//DTD SVG 1.1//EN" "http://www.w3.org/Graphics/SVG/1.1/DTD/svg11.dtd">
<svg style="fill: var(--color-svg-error)" version="1.1" id="Ebene_1" xmlns="http://www.w3.org/2000/svg" xmlns:xlink="http://www.w3.org/1999/xlink" x="0px" y="0px"
	 width="20.009px" height="20.295px" viewBox="0 0 20.009 20.295" enable-background="new 0 0 20.009 20.295" xml:space="preserve">
<g display="none">
	<path display="inline" d="M10.021,20.043C4.496,20.043,0,15.548,0,10.022C0,4.495,4.496,0,10.021,0
		c5.527,0,10.022,4.495,10.022,10.022C20.043,15.548,15.548,20.043,10.021,20.043z M10.021,1.562c-4.664,0-8.459,3.796-8.459,8.461
		s3.795,8.46,8.459,8.46c4.666,0,8.46-3.795,8.46-8.46S14.687,1.562,10.021,1.562z"/>
	<path display="inline" d="M8.951,14.149c0-0.595,0.414-1.024,0.977-1.024c0.596,0,0.977,0.43,0.977,1.024
		c0,0.581-0.381,1.027-0.977,1.027C9.349,15.177,8.951,14.73,8.951,14.149z M9.365,11.783L9.133,3.839h1.588l-0.23,7.944H9.365z"/>
</g>
<g display="none">
	<path display="inline" d="M10.021,20.043C4.496,20.043,0,15.548,0,10.022C0,4.495,4.496,0,10.021,0
		c5.526,0,10.022,4.495,10.022,10.022C20.043,15.548,15.548,20.043,10.021,20.043z M10.021,1.562c-4.665,0-8.459,3.796-8.459,8.461
		s3.795,8.46,8.459,8.46c4.665,0,8.46-3.795,8.46-8.46S14.687,1.562,10.021,1.562z"/>
	<path display="inline"  d="M10.684,5.761c0.014,0.402-0.281,0.723-0.75,0.723c-0.416,0-0.709-0.32-0.709-0.723
		c0-0.415,0.308-0.737,0.736-0.737C10.403,5.023,10.684,5.346,10.684,5.761z M9.372,14.064V7.582h1.178v6.482H9.372z"/>
</g>
<g>
	<path d="M9.974,0C4.474,0,0,4.475,0,9.975c0,5.499,4.474,9.974,9.974,9.974s9.974-4.475,9.974-9.974
		C19.948,4.475,15.474,0,9.974,0z M18.394,9.975c0,2.009-0.709,3.854-1.889,5.303L4.671,3.442C6.12,2.264,7.965,1.555,9.974,1.555
		C14.617,1.555,18.394,5.332,18.394,9.975z M1.554,9.975c0-2.075,0.758-3.975,2.008-5.443l11.855,11.855
		c-1.469,1.249-3.368,2.007-5.443,2.007C5.332,18.394,1.554,14.617,1.554,9.975z"/>
</g>
</svg>
